<?xml version="1.0" encoding="us-ascii" standalone="no"?><svg xmlns="http://www.w3.org/2000/svg" xmlns:xlink="http://www.w3.org/1999/xlink" contentStyleType="text/css" height="1146px" preserveAspectRatio="none" style="width:1337px;height:1146px;background:#FFFFFF;" version="1.1" viewBox="0 0 1337 1146" width="1337px" zoomAndPan="magnify"><defs/><g><text fill="#000000" font-family="sans-serif" font-size="14" font-weight="bold" lengthAdjust="spacing" textLength="184" x="569.5" y="24.5332">Ahlam’s Girls    Database Schema</text><!--class users--><g id="elem_users"><rect codeLine="6" fill="#F1F1F1" height="276.9219" id="users" rx="2.5" ry="2.5" style="stroke:#181818;stroke-width:0.5;" width="84" x="125.5" y="45.6094"/><ellipse cx="148.15" cy="61.6094" fill="#ADD1B2" rx="11" ry="11" style="stroke:#181818;stroke-width:1.0;"/><path d="M147.0094,62.4063 L147.0094,64.9063 L151.3375,64.9063 L151.3375,63.9844 Q151.3375,63.375 151.5797,63.1094 Q151.8219,62.8438 152.1969,62.8438 Q152.5719,62.8438 152.8063,63.1094 Q153.0406,63.375 153.0406,63.9844 L153.0406,66.6094 L145.0406,66.6094 Q144.4156,66.6094 144.1578,66.375 Q143.9,66.1406 143.9,65.75 Q143.9,65.375 144.1656,65.1406 Q144.4313,64.9063 145.0406,64.9063 L145.3063,64.9063 L145.3063,58.25 L145.0406,58.25 Q144.4156,58.25 144.1578,58.0156 Q143.9,57.7813 143.9,57.3906 Q143.9,57.0156 144.1578,56.7813 Q144.4156,56.5469 145.0406,56.5469 L152.6656,56.5469 L152.6656,59.1406 Q152.6656,59.75 152.4391,60.0078 Q152.2125,60.2656 151.8219,60.2656 Q151.4469,60.2656 151.2125,60.0078 Q150.9781,59.75 150.9781,59.1406 L150.9781,58.25 L147.0094,58.25 L147.0094,60.7031 L148.4938,60.7031 Q148.4938,60.0469 148.6188,59.8594 Q148.8844,59.4531 149.3531,59.4531 Q149.7281,59.4531 149.9625,59.7109 Q150.1969,59.9688 150.1969,60.5781 L150.1969,62.5469 Q150.1969,63.0938 150.0719,63.2813 Q149.8063,63.6719 149.3531,63.6719 Q148.8844,63.6719 148.6188,63.2656 Q148.4938,63.0781 148.4938,62.4063 L147.0094,62.4063 Z " fill="#000000"/><text fill="#000000" font-family="sans-serif" font-size="14" lengthAdjust="spacing" textLength="35" x="163.85" y="67.3379">users</text><line style="stroke:#181818;stroke-width:0.5;" x1="126.5" x2="208.5" y1="77.6094" y2="77.6094"/><text fill="#000000" font-family="sans-serif" font-size="14" lengthAdjust="spacing" textLength="11" x="131.5" y="96.1426">id</text><text fill="#000000" font-family="sans-serif" font-size="14" lengthAdjust="spacing" textLength="35" x="131.5" y="113.752">name</text><text fill="#000000" font-family="sans-serif" font-size="14" lengthAdjust="spacing" textLength="33" x="131.5" y="131.3613">email</text><text fill="#000000" font-family="sans-serif" font-size="14" lengthAdjust="spacing" textLength="60" x="131.5" y="148.9707">password</text><text fill="#000000" font-family="sans-serif" font-size="14" lengthAdjust="spacing" textLength="24" x="131.5" y="166.5801">role</text><text fill="#000000" font-family="sans-serif" font-size="14" lengthAdjust="spacing" textLength="40" x="131.5" y="184.1895">phone</text><text fill="#000000" font-family="sans-serif" font-size="14" lengthAdjust="spacing" textLength="51" x="131.5" y="201.7988">address</text><text fill="#000000" font-family="sans-serif" font-size="14" lengthAdjust="spacing" textLength="21" x="131.5" y="219.4082">city</text><text fill="#000000" font-family="sans-serif" font-size="14" lengthAdjust="spacing" textLength="47" x="131.5" y="237.0176">country</text><text fill="#000000" font-family="sans-serif" font-size="14" lengthAdjust="spacing" textLength="56" x="131.5" y="254.627">zip_code</text><text fill="#000000" font-family="sans-serif" font-size="14" lengthAdjust="spacing" textLength="55" x="131.5" y="272.2363">is_active</text><text fill="#000000" font-family="sans-serif" font-size="14" lengthAdjust="spacing" textLength="68" x="131.5" y="289.8457">created_at</text><text fill="#000000" font-family="sans-serif" font-size="14" lengthAdjust="spacing" textLength="72" x="131.5" y="307.4551">updated_at</text><line style="stroke:#181818;stroke-width:0.5;" x1="126.5" x2="208.5" y1="314.5313" y2="314.5313"/></g><!--class customers--><g id="elem_customers"><rect codeLine="22" fill="#F1F1F1" height="206.4844" id="customers" rx="2.5" ry="2.5" style="stroke:#181818;stroke-width:0.5;" width="97" x="514" y="382.6094"/><ellipse cx="529" cy="398.6094" fill="#ADD1B2" rx="11" ry="11" style="stroke:#181818;stroke-width:1.0;"/><path d="M527.8594,399.4063 L527.8594,401.9063 L532.1875,401.9063 L532.1875,400.9844 Q532.1875,400.375 532.4297,400.1094 Q532.6719,399.8438 533.0469,399.8438 Q533.4219,399.8438 533.6563,400.1094 Q533.8906,400.375 533.8906,400.9844 L533.8906,403.6094 L525.8906,403.6094 Q525.2656,403.6094 525.0078,403.375 Q524.75,403.1406 524.75,402.75 Q524.75,402.375 525.0156,402.1406 Q525.2813,401.9063 525.8906,401.9063 L526.1563,401.9063 L526.1563,395.25 L525.8906,395.25 Q525.2656,395.25 525.0078,395.0156 Q524.75,394.7813 524.75,394.3906 Q524.75,394.0156 525.0078,393.7813 Q525.2656,393.5469 525.8906,393.5469 L533.5156,393.5469 L533.5156,396.1406 Q533.5156,396.75 533.2891,397.0078 Q533.0625,397.2656 532.6719,397.2656 Q532.2969,397.2656 532.0625,397.0078 Q531.8281,396.75 531.8281,396.1406 L531.8281,395.25 L527.8594,395.25 L527.8594,397.7031 L529.3438,397.7031 Q529.3438,397.0469 529.4688,396.8594 Q529.7344,396.4531 530.2031,396.4531 Q530.5781,396.4531 530.8125,396.7109 Q531.0469,396.9688 531.0469,397.5781 L531.0469,399.5469 Q531.0469,400.0938 530.9219,400.2813 Q530.6563,400.6719 530.2031,400.6719 Q529.7344,400.6719 529.4688,400.2656 Q529.3438,400.0781 529.3438,399.4063 L527.8594,399.4063 Z " fill="#000000"/><text fill="#000000" font-family="sans-serif" font-size="14" lengthAdjust="spacing" textLength="65" x="543" y="404.3379">customers</text><line style="stroke:#181818;stroke-width:0.5;" x1="515" x2="610" y1="414.6094" y2="414.6094"/><text fill="#000000" font-family="sans-serif" font-size="14" lengthAdjust="spacing" textLength="11" x="520" y="433.1426">id</text><text fill="#000000" font-family="sans-serif" font-size="14" lengthAdjust="spacing" textLength="35" x="520" y="450.752">name</text><text fill="#000000" font-family="sans-serif" font-size="14" lengthAdjust="spacing" textLength="33" x="520" y="468.3613">email</text><text fill="#000000" font-family="sans-serif" font-size="14" lengthAdjust="spacing" textLength="40" x="520" y="485.9707">phone</text><text fill="#000000" font-family="sans-serif" font-size="14" lengthAdjust="spacing" textLength="47" x="520" y="503.5801">country</text><text fill="#000000" font-family="sans-serif" font-size="14" lengthAdjust="spacing" textLength="51" x="520" y="521.1895">address</text><text fill="#000000" font-family="sans-serif" font-size="14" lengthAdjust="spacing" textLength="48" x="520" y="538.7988">zipcode</text><text fill="#000000" font-family="sans-serif" font-size="14" lengthAdjust="spacing" textLength="68" x="520" y="556.4082">created_at</text><text fill="#000000" font-family="sans-serif" font-size="14" lengthAdjust="spacing" textLength="72" x="520" y="574.0176">updated_at</text><line style="stroke:#181818;stroke-width:0.5;" x1="515" x2="610" y1="581.0938" y2="581.0938"/></g><!--class orders--><g id="elem_orders"><rect codeLine="34" fill="#F1F1F1" height="171.2656" id="orders" rx="2.5" ry="2.5" style="stroke:#181818;stroke-width:0.5;" width="112" x="548.5" y="675.1094"/><ellipse cx="581.05" cy="691.1094" fill="#ADD1B2" rx="11" ry="11" style="stroke:#181818;stroke-width:1.0;"/><path d="M579.9094,691.9063 L579.9094,694.4063 L584.2375,694.4063 L584.2375,693.4844 Q584.2375,692.875 584.4797,692.6094 Q584.7219,692.3438 585.0969,692.3438 Q585.4719,692.3438 585.7063,692.6094 Q585.9406,692.875 585.9406,693.4844 L585.9406,696.1094 L577.9406,696.1094 Q577.3156,696.1094 577.0578,695.875 Q576.8,695.6406 576.8,695.25 Q576.8,694.875 577.0656,694.6406 Q577.3313,694.4063 577.9406,694.4063 L578.2063,694.4063 L578.2063,687.75 L577.9406,687.75 Q577.3156,687.75 577.0578,687.5156 Q576.8,687.2813 576.8,686.8906 Q576.8,686.5156 577.0578,686.2813 Q577.3156,686.0469 577.9406,686.0469 L585.5656,686.0469 L585.5656,688.6406 Q585.5656,689.25 585.3391,689.5078 Q585.1125,689.7656 584.7219,689.7656 Q584.3469,689.7656 584.1125,689.5078 Q583.8781,689.25 583.8781,688.6406 L583.8781,687.75 L579.9094,687.75 L579.9094,690.2031 L581.3938,690.2031 Q581.3938,689.5469 581.5188,689.3594 Q581.7844,688.9531 582.2531,688.9531 Q582.6281,688.9531 582.8625,689.2109 Q583.0969,689.4688 583.0969,690.0781 L583.0969,692.0469 Q583.0969,692.5938 582.9719,692.7813 Q582.7063,693.1719 582.2531,693.1719 Q581.7844,693.1719 581.5188,692.7656 Q581.3938,692.5781 581.3938,691.9063 L579.9094,691.9063 Z " fill="#000000"/><text fill="#000000" font-family="sans-serif" font-size="14" lengthAdjust="spacing" textLength="41" x="598.95" y="696.8379">orders</text><line style="stroke:#181818;stroke-width:0.5;" x1="549.5" x2="659.5" y1="707.1094" y2="707.1094"/><text fill="#000000" font-family="sans-serif" font-size="14" lengthAdjust="spacing" textLength="11" x="554.5" y="725.6426">id</text><text fill="#000000" font-family="sans-serif" font-size="14" lengthAdjust="spacing" textLength="77" x="554.5" y="743.252">customer_id</text><text fill="#000000" font-family="sans-serif" font-size="14" lengthAdjust="spacing" textLength="38" x="554.5" y="760.8613">status</text><text fill="#000000" font-family="sans-serif" font-size="14" lengthAdjust="spacing" textLength="82" x="554.5" y="778.4707">total_amount</text><text fill="#000000" font-family="sans-serif" font-size="14" lengthAdjust="spacing" textLength="100" x="554.5" y="796.0801">payment_status</text><text fill="#000000" font-family="sans-serif" font-size="14" lengthAdjust="spacing" textLength="68" x="554.5" y="813.6895">created_at</text><text fill="#000000" font-family="sans-serif" font-size="14" lengthAdjust="spacing" textLength="72" x="554.5" y="831.2988">updated_at</text><line style="stroke:#181818;stroke-width:0.5;" x1="549.5" x2="659.5" y1="838.375" y2="838.375"/></g><!--class order_items--><g id="elem_order_items"><rect codeLine="44" fill="#F1F1F1" height="206.4844" id="order_items" rx="2.5" ry="2.5" style="stroke:#181818;stroke-width:0.5;" width="119" x="471" y="932.6094"/><ellipse cx="491.4" cy="948.6094" fill="#ADD1B2" rx="11" ry="11" style="stroke:#181818;stroke-width:1.0;"/><path d="M490.2594,949.4063 L490.2594,951.9063 L494.5875,951.9063 L494.5875,950.9844 Q494.5875,950.375 494.8297,950.1094 Q495.0719,949.8438 495.4469,949.8438 Q495.8219,949.8438 496.0563,950.1094 Q496.2906,950.375 496.2906,950.9844 L496.2906,953.6094 L488.2906,953.6094 Q487.6656,953.6094 487.4078,953.375 Q487.15,953.1406 487.15,952.75 Q487.15,952.375 487.4156,952.1406 Q487.6813,951.9063 488.2906,951.9063 L488.5563,951.9063 L488.5563,945.25 L488.2906,945.25 Q487.6656,945.25 487.4078,945.0156 Q487.15,944.7813 487.15,944.3906 Q487.15,944.0156 487.4078,943.7813 Q487.6656,943.5469 488.2906,943.5469 L495.9156,943.5469 L495.9156,946.1406 Q495.9156,946.75 495.6891,947.0078 Q495.4625,947.2656 495.0719,947.2656 Q494.6969,947.2656 494.4625,947.0078 Q494.2281,946.75 494.2281,946.1406 L494.2281,945.25 L490.2594,945.25 L490.2594,947.7031 L491.7438,947.7031 Q491.7438,947.0469 491.8688,946.8594 Q492.1344,946.4531 492.6031,946.4531 Q492.9781,946.4531 493.2125,946.7109 Q493.4469,946.9688 493.4469,947.5781 L493.4469,949.5469 Q493.4469,950.0938 493.3219,950.2813 Q493.0563,950.6719 492.6031,950.6719 Q492.1344,950.6719 491.8688,950.2656 Q491.7438,950.0781 491.7438,949.4063 L490.2594,949.4063 Z " fill="#000000"/><text fill="#000000" font-family="sans-serif" font-size="14" lengthAdjust="spacing" textLength="75" x="506.6" y="954.3379">order_items</text><line style="stroke:#181818;stroke-width:0.5;" x1="472" x2="589" y1="964.6094" y2="964.6094"/><text fill="#000000" font-family="sans-serif" font-size="14" lengthAdjust="spacing" textLength="11" x="477" y="983.1426">id</text><text fill="#000000" font-family="sans-serif" font-size="14" lengthAdjust="spacing" textLength="53" x="477" y="1000.752">order_id</text><text fill="#000000" font-family="sans-serif" font-size="14" lengthAdjust="spacing" textLength="67" x="477" y="1018.3613">product_id</text><text fill="#000000" font-family="sans-serif" font-size="14" lengthAdjust="spacing" textLength="107" x="477" y="1035.9707">saved_design_id</text><text fill="#000000" font-family="sans-serif" font-size="14" lengthAdjust="spacing" textLength="50" x="477" y="1053.5801">quantity</text><text fill="#000000" font-family="sans-serif" font-size="14" lengthAdjust="spacing" textLength="62" x="477" y="1071.1895">unit_price</text><text fill="#000000" font-family="sans-serif" font-size="14" lengthAdjust="spacing" textLength="66" x="477" y="1088.7988">total_price</text><text fill="#000000" font-family="sans-serif" font-size="14" lengthAdjust="spacing" textLength="68" x="477" y="1106.4082">created_at</text><text fill="#000000" font-family="sans-serif" font-size="14" lengthAdjust="spacing" textLength="72" x="477" y="1124.0176">updated_at</text><line style="stroke:#181818;stroke-width:0.5;" x1="472" x2="589" y1="1131.0938" y2="1131.0938"/></g><!--class products--><g id="elem_products"><rect codeLine="56" fill="#F1F1F1" height="224.0938" id="products" rx="2.5" ry="2.5" style="stroke:#181818;stroke-width:0.5;" width="114" x="399.5" y="648.6094"/><ellipse cx="426.65" cy="664.6094" fill="#ADD1B2" rx="11" ry="11" style="stroke:#181818;stroke-width:1.0;"/><path d="M425.5094,665.4063 L425.5094,667.9063 L429.8375,667.9063 L429.8375,666.9844 Q429.8375,666.375 430.0797,666.1094 Q430.3219,665.8438 430.6969,665.8438 Q431.0719,665.8438 431.3063,666.1094 Q431.5406,666.375 431.5406,666.9844 L431.5406,669.6094 L423.5406,669.6094 Q422.9156,669.6094 422.6578,669.375 Q422.4,669.1406 422.4,668.75 Q422.4,668.375 422.6656,668.1406 Q422.9313,667.9063 423.5406,667.9063 L423.8063,667.9063 L423.8063,661.25 L423.5406,661.25 Q422.9156,661.25 422.6578,661.0156 Q422.4,660.7813 422.4,660.3906 Q422.4,660.0156 422.6578,659.7813 Q422.9156,659.5469 423.5406,659.5469 L431.1656,659.5469 L431.1656,662.1406 Q431.1656,662.75 430.9391,663.0078 Q430.7125,663.2656 430.3219,663.2656 Q429.9469,663.2656 429.7125,663.0078 Q429.4781,662.75 429.4781,662.1406 L429.4781,661.25 L425.5094,661.25 L425.5094,663.7031 L426.9938,663.7031 Q426.9938,663.0469 427.1188,662.8594 Q427.3844,662.4531 427.8531,662.4531 Q428.2281,662.4531 428.4625,662.7109 Q428.6969,662.9688 428.6969,663.5781 L428.6969,665.5469 Q428.6969,666.0938 428.5719,666.2813 Q428.3063,666.6719 427.8531,666.6719 Q427.3844,666.6719 427.1188,666.2656 Q426.9938,666.0781 426.9938,665.4063 L425.5094,665.4063 Z " fill="#000000"/><text fill="#000000" font-family="sans-serif" font-size="14" lengthAdjust="spacing" textLength="55" x="443.35" y="670.3379">products</text><line style="stroke:#181818;stroke-width:0.5;" x1="400.5" x2="512.5" y1="680.6094" y2="680.6094"/><text fill="#000000" font-family="sans-serif" font-size="14" lengthAdjust="spacing" textLength="11" x="405.5" y="699.1426">id</text><text fill="#000000" font-family="sans-serif" font-size="14" lengthAdjust="spacing" textLength="102" x="405.5" y="716.752">product_type_id</text><text fill="#000000" font-family="sans-serif" font-size="14" lengthAdjust="spacing" textLength="35" x="405.5" y="734.3613">name</text><text fill="#000000" font-family="sans-serif" font-size="14" lengthAdjust="spacing" textLength="26" x="405.5" y="751.9707">slug</text><text fill="#000000" font-family="sans-serif" font-size="14" lengthAdjust="spacing" textLength="31" x="405.5" y="769.5801">price</text><text fill="#000000" font-family="sans-serif" font-size="14" lengthAdjust="spacing" textLength="65" x="405.5" y="787.1895">sale_price</text><text fill="#000000" font-family="sans-serif" font-size="14" lengthAdjust="spacing" textLength="101" x="405.5" y="804.7988">inventory_count</text><text fill="#000000" font-family="sans-serif" font-size="14" lengthAdjust="spacing" textLength="55" x="405.5" y="822.4082">is_active</text><text fill="#000000" font-family="sans-serif" font-size="14" lengthAdjust="spacing" textLength="68" x="405.5" y="840.0176">created_at</text><text fill="#000000" font-family="sans-serif" font-size="14" lengthAdjust="spacing" textLength="72" x="405.5" y="857.627">updated_at</text><line style="stroke:#181818;stroke-width:0.5;" x1="400.5" x2="512.5" y1="864.7031" y2="864.7031"/></g><!--class product_types--><g id="elem_product_types"><rect codeLine="69" fill="#F1F1F1" height="171.2656" id="product_types" rx="2.5" ry="2.5" style="stroke:#181818;stroke-width:0.5;" width="122" x="273.5" y="400.1094"/><ellipse cx="288.5" cy="416.1094" fill="#ADD1B2" rx="11" ry="11" style="stroke:#181818;stroke-width:1.0;"/><path d="M287.3594,416.9063 L287.3594,419.4063 L291.6875,419.4063 L291.6875,418.4844 Q291.6875,417.875 291.9297,417.6094 Q292.1719,417.3438 292.5469,417.3438 Q292.9219,417.3438 293.1563,417.6094 Q293.3906,417.875 293.3906,418.4844 L293.3906,421.1094 L285.3906,421.1094 Q284.7656,421.1094 284.5078,420.875 Q284.25,420.6406 284.25,420.25 Q284.25,419.875 284.5156,419.6406 Q284.7813,419.4063 285.3906,419.4063 L285.6563,419.4063 L285.6563,412.75 L285.3906,412.75 Q284.7656,412.75 284.5078,412.5156 Q284.25,412.2813 284.25,411.8906 Q284.25,411.5156 284.5078,411.2813 Q284.7656,411.0469 285.3906,411.0469 L293.0156,411.0469 L293.0156,413.6406 Q293.0156,414.25 292.7891,414.5078 Q292.5625,414.7656 292.1719,414.7656 Q291.7969,414.7656 291.5625,414.5078 Q291.3281,414.25 291.3281,413.6406 L291.3281,412.75 L287.3594,412.75 L287.3594,415.2031 L288.8438,415.2031 Q288.8438,414.5469 288.9688,414.3594 Q289.2344,413.9531 289.7031,413.9531 Q290.0781,413.9531 290.3125,414.2109 Q290.5469,414.4688 290.5469,415.0781 L290.5469,417.0469 Q290.5469,417.5938 290.4219,417.7813 Q290.1563,418.1719 289.7031,418.1719 Q289.2344,418.1719 288.9688,417.7656 Q288.8438,417.5781 288.8438,416.9063 L287.3594,416.9063 Z " fill="#000000"/><text fill="#000000" font-family="sans-serif" font-size="14" lengthAdjust="spacing" textLength="90" x="302.5" y="421.8379">product_types</text><line style="stroke:#181818;stroke-width:0.5;" x1="274.5" x2="394.5" y1="432.1094" y2="432.1094"/><text fill="#000000" font-family="sans-serif" font-size="14" lengthAdjust="spacing" textLength="11" x="279.5" y="450.6426">id</text><text fill="#000000" font-family="sans-serif" font-size="14" lengthAdjust="spacing" textLength="35" x="279.5" y="468.252">name</text><text fill="#000000" font-family="sans-serif" font-size="14" lengthAdjust="spacing" textLength="26" x="279.5" y="485.8613">slug</text><text fill="#000000" font-family="sans-serif" font-size="14" lengthAdjust="spacing" textLength="70" x="279.5" y="503.4707">base_price</text><text fill="#000000" font-family="sans-serif" font-size="14" lengthAdjust="spacing" textLength="55" x="279.5" y="521.0801">is_active</text><text fill="#000000" font-family="sans-serif" font-size="14" lengthAdjust="spacing" textLength="68" x="279.5" y="538.6895">created_at</text><text fill="#000000" font-family="sans-serif" font-size="14" lengthAdjust="spacing" textLength="72" x="279.5" y="556.2988">updated_at</text><line style="stroke:#181818;stroke-width:0.5;" x1="274.5" x2="394.5" y1="563.375" y2="563.375"/></g><!--class saved_designs--><g id="elem_saved_designs"><rect codeLine="79" fill="#F1F1F1" height="188.875" id="saved_designs" rx="2.5" ry="2.5" style="stroke:#181818;stroke-width:0.5;" width="127" x="167" y="941.1094"/><ellipse cx="182" cy="957.1094" fill="#ADD1B2" rx="11" ry="11" style="stroke:#181818;stroke-width:1.0;"/><path d="M180.8594,957.9063 L180.8594,960.4063 L185.1875,960.4063 L185.1875,959.4844 Q185.1875,958.875 185.4297,958.6094 Q185.6719,958.3438 186.0469,958.3438 Q186.4219,958.3438 186.6563,958.6094 Q186.8906,958.875 186.8906,959.4844 L186.8906,962.1094 L178.8906,962.1094 Q178.2656,962.1094 178.0078,961.875 Q177.75,961.6406 177.75,961.25 Q177.75,960.875 178.0156,960.6406 Q178.2813,960.4063 178.8906,960.4063 L179.1563,960.4063 L179.1563,953.75 L178.8906,953.75 Q178.2656,953.75 178.0078,953.5156 Q177.75,953.2813 177.75,952.8906 Q177.75,952.5156 178.0078,952.2813 Q178.2656,952.0469 178.8906,952.0469 L186.5156,952.0469 L186.5156,954.6406 Q186.5156,955.25 186.2891,955.5078 Q186.0625,955.7656 185.6719,955.7656 Q185.2969,955.7656 185.0625,955.5078 Q184.8281,955.25 184.8281,954.6406 L184.8281,953.75 L180.8594,953.75 L180.8594,956.2031 L182.3438,956.2031 Q182.3438,955.5469 182.4688,955.3594 Q182.7344,954.9531 183.2031,954.9531 Q183.5781,954.9531 183.8125,955.2109 Q184.0469,955.4688 184.0469,956.0781 L184.0469,958.0469 Q184.0469,958.5938 183.9219,958.7813 Q183.6563,959.1719 183.2031,959.1719 Q182.7344,959.1719 182.4688,958.7656 Q182.3438,958.5781 182.3438,957.9063 L180.8594,957.9063 Z " fill="#000000"/><text fill="#000000" font-family="sans-serif" font-size="14" lengthAdjust="spacing" textLength="95" x="196" y="962.8379">saved_designs</text><line style="stroke:#181818;stroke-width:0.5;" x1="168" x2="293" y1="973.1094" y2="973.1094"/><text fill="#000000" font-family="sans-serif" font-size="14" lengthAdjust="spacing" textLength="11" x="173" y="991.6426">id</text><text fill="#000000" font-family="sans-serif" font-size="14" lengthAdjust="spacing" textLength="47" x="173" y="1009.252">user_id</text><text fill="#000000" font-family="sans-serif" font-size="14" lengthAdjust="spacing" textLength="102" x="173" y="1026.8613">product_type_id</text><text fill="#000000" font-family="sans-serif" font-size="14" lengthAdjust="spacing" textLength="35" x="173" y="1044.4707">name</text><text fill="#000000" font-family="sans-serif" font-size="14" lengthAdjust="spacing" textLength="78" x="173" y="1062.0801">design_data</text><text fill="#000000" font-family="sans-serif" font-size="14" lengthAdjust="spacing" textLength="55" x="173" y="1079.6895">is_public</text><text fill="#000000" font-family="sans-serif" font-size="14" lengthAdjust="spacing" textLength="68" x="173" y="1097.2988">created_at</text><text fill="#000000" font-family="sans-serif" font-size="14" lengthAdjust="spacing" textLength="72" x="173" y="1114.9082">updated_at</text><line style="stroke:#181818;stroke-width:0.5;" x1="168" x2="293" y1="1121.9844" y2="1121.9844"/></g><!--class design_templates--><g id="elem_design_templates"><rect codeLine="90" fill="#F1F1F1" height="188.875" id="design_templates" rx="2.5" ry="2.5" style="stroke:#181818;stroke-width:0.5;" width="143" x="221" y="666.1094"/><ellipse cx="236" cy="682.1094" fill="#ADD1B2" rx="11" ry="11" style="stroke:#181818;stroke-width:1.0;"/><path d="M234.8594,682.9063 L234.8594,685.4063 L239.1875,685.4063 L239.1875,684.4844 Q239.1875,683.875 239.4297,683.6094 Q239.6719,683.3438 240.0469,683.3438 Q240.4219,683.3438 240.6563,683.6094 Q240.8906,683.875 240.8906,684.4844 L240.8906,687.1094 L232.8906,687.1094 Q232.2656,687.1094 232.0078,686.875 Q231.75,686.6406 231.75,686.25 Q231.75,685.875 232.0156,685.6406 Q232.2813,685.4063 232.8906,685.4063 L233.1563,685.4063 L233.1563,678.75 L232.8906,678.75 Q232.2656,678.75 232.0078,678.5156 Q231.75,678.2813 231.75,677.8906 Q231.75,677.5156 232.0078,677.2813 Q232.2656,677.0469 232.8906,677.0469 L240.5156,677.0469 L240.5156,679.6406 Q240.5156,680.25 240.2891,680.5078 Q240.0625,680.7656 239.6719,680.7656 Q239.2969,680.7656 239.0625,680.5078 Q238.8281,680.25 238.8281,679.6406 L238.8281,678.75 L234.8594,678.75 L234.8594,681.2031 L236.3438,681.2031 Q236.3438,680.5469 236.4688,680.3594 Q236.7344,679.9531 237.2031,679.9531 Q237.5781,679.9531 237.8125,680.2109 Q238.0469,680.4688 238.0469,681.0781 L238.0469,683.0469 Q238.0469,683.5938 237.9219,683.7813 Q237.6563,684.1719 237.2031,684.1719 Q236.7344,684.1719 236.4688,683.7656 Q236.3438,683.5781 236.3438,682.9063 L234.8594,682.9063 Z " fill="#000000"/><text fill="#000000" font-family="sans-serif" font-size="14" lengthAdjust="spacing" textLength="111" x="250" y="687.8379">design_templates</text><line style="stroke:#181818;stroke-width:0.5;" x1="222" x2="363" y1="698.1094" y2="698.1094"/><text fill="#000000" font-family="sans-serif" font-size="14" lengthAdjust="spacing" textLength="11" x="227" y="716.6426">id</text><text fill="#000000" font-family="sans-serif" font-size="14" lengthAdjust="spacing" textLength="35" x="227" y="734.252">name</text><text fill="#000000" font-family="sans-serif" font-size="14" lengthAdjust="spacing" textLength="102" x="227" y="751.8613">product_type_id</text><text fill="#000000" font-family="sans-serif" font-size="14" lengthAdjust="spacing" textLength="78" x="227" y="769.4707">design_data</text><text fill="#000000" font-family="sans-serif" font-size="14" lengthAdjust="spacing" textLength="72" x="227" y="787.0801">is_premium</text><text fill="#000000" font-family="sans-serif" font-size="14" lengthAdjust="spacing" textLength="31" x="227" y="804.6895">price</text><text fill="#000000" font-family="sans-serif" font-size="14" lengthAdjust="spacing" textLength="68" x="227" y="822.2988">created_at</text><text fill="#000000" font-family="sans-serif" font-size="14" lengthAdjust="spacing" textLength="72" x="227" y="839.9082">updated_at</text><line style="stroke:#181818;stroke-width:0.5;" x1="222" x2="363" y1="846.9844" y2="846.9844"/></g><!--class roles--><g id="elem_roles"><rect codeLine="101" fill="#F1F1F1" height="153.6563" id="roles" rx="2.5" ry="2.5" style="stroke:#181818;stroke-width:0.5;" width="84" x="24.5" y="408.6094"/><ellipse cx="48.95" cy="424.6094" fill="#ADD1B2" rx="11" ry="11" style="stroke:#181818;stroke-width:1.0;"/><path d="M47.8094,425.4063 L47.8094,427.9063 L52.1375,427.9063 L52.1375,426.9844 Q52.1375,426.375 52.3797,426.1094 Q52.6219,425.8438 52.9969,425.8438 Q53.3719,425.8438 53.6063,426.1094 Q53.8406,426.375 53.8406,426.9844 L53.8406,429.6094 L45.8406,429.6094 Q45.2156,429.6094 44.9578,429.375 Q44.7,429.1406 44.7,428.75 Q44.7,428.375 44.9656,428.1406 Q45.2313,427.9063 45.8406,427.9063 L46.1063,427.9063 L46.1063,421.25 L45.8406,421.25 Q45.2156,421.25 44.9578,421.0156 Q44.7,420.7813 44.7,420.3906 Q44.7,420.0156 44.9578,419.7813 Q45.2156,419.5469 45.8406,419.5469 L53.4656,419.5469 L53.4656,422.1406 Q53.4656,422.75 53.2391,423.0078 Q53.0125,423.2656 52.6219,423.2656 Q52.2469,423.2656 52.0125,423.0078 Q51.7781,422.75 51.7781,422.1406 L51.7781,421.25 L47.8094,421.25 L47.8094,423.7031 L49.2938,423.7031 Q49.2938,423.0469 49.4188,422.8594 Q49.6844,422.4531 50.1531,422.4531 Q50.5281,422.4531 50.7625,422.7109 Q50.9969,422.9688 50.9969,423.5781 L50.9969,425.5469 Q50.9969,426.0938 50.8719,426.2813 Q50.6063,426.6719 50.1531,426.6719 Q49.6844,426.6719 49.4188,426.2656 Q49.2938,426.0781 49.2938,425.4063 L47.8094,425.4063 Z " fill="#000000"/><text fill="#000000" font-family="sans-serif" font-size="14" lengthAdjust="spacing" textLength="31" x="65.05" y="430.3379">roles</text><line style="stroke:#181818;stroke-width:0.5;" x1="25.5" x2="107.5" y1="440.6094" y2="440.6094"/><text fill="#000000" font-family="sans-serif" font-size="14" lengthAdjust="spacing" textLength="11" x="30.5" y="459.1426">id</text><text fill="#000000" font-family="sans-serif" font-size="14" lengthAdjust="spacing" textLength="35" x="30.5" y="476.752">name</text><text fill="#000000" font-family="sans-serif" font-size="14" lengthAdjust="spacing" textLength="26" x="30.5" y="494.3613">slug</text><text fill="#000000" font-family="sans-serif" font-size="14" lengthAdjust="spacing" textLength="55" x="30.5" y="511.9707">is_active</text><text fill="#000000" font-family="sans-serif" font-size="14" lengthAdjust="spacing" textLength="68" x="30.5" y="529.5801">created_at</text><text fill="#000000" font-family="sans-serif" font-size="14" lengthAdjust="spacing" textLength="72" x="30.5" y="547.1895">updated_at</text><line style="stroke:#181818;stroke-width:0.5;" x1="25.5" x2="107.5" y1="554.2656" y2="554.2656"/></g><!--class permissions--><g id="elem_permissions"><rect codeLine="110" fill="#F1F1F1" height="171.2656" id="permissions" rx="2.5" ry="2.5" style="stroke:#181818;stroke-width:0.5;" width="107" x="7" y="675.1094"/><ellipse cx="22" cy="691.1094" fill="#ADD1B2" rx="11" ry="11" style="stroke:#181818;stroke-width:1.0;"/><path d="M20.8594,691.9063 L20.8594,694.4063 L25.1875,694.4063 L25.1875,693.4844 Q25.1875,692.875 25.4297,692.6094 Q25.6719,692.3438 26.0469,692.3438 Q26.4219,692.3438 26.6563,692.6094 Q26.8906,692.875 26.8906,693.4844 L26.8906,696.1094 L18.8906,696.1094 Q18.2656,696.1094 18.0078,695.875 Q17.75,695.6406 17.75,695.25 Q17.75,694.875 18.0156,694.6406 Q18.2813,694.4063 18.8906,694.4063 L19.1563,694.4063 L19.1563,687.75 L18.8906,687.75 Q18.2656,687.75 18.0078,687.5156 Q17.75,687.2813 17.75,686.8906 Q17.75,686.5156 18.0078,686.2813 Q18.2656,686.0469 18.8906,686.0469 L26.5156,686.0469 L26.5156,688.6406 Q26.5156,689.25 26.2891,689.5078 Q26.0625,689.7656 25.6719,689.7656 Q25.2969,689.7656 25.0625,689.5078 Q24.8281,689.25 24.8281,688.6406 L24.8281,687.75 L20.8594,687.75 L20.8594,690.2031 L22.3438,690.2031 Q22.3438,689.5469 22.4688,689.3594 Q22.7344,688.9531 23.2031,688.9531 Q23.5781,688.9531 23.8125,689.2109 Q24.0469,689.4688 24.0469,690.0781 L24.0469,692.0469 Q24.0469,692.5938 23.9219,692.7813 Q23.6563,693.1719 23.2031,693.1719 Q22.7344,693.1719 22.4688,692.7656 Q22.3438,692.5781 22.3438,691.9063 L20.8594,691.9063 Z " fill="#000000"/><text fill="#000000" font-family="sans-serif" font-size="14" lengthAdjust="spacing" textLength="75" x="36" y="696.8379">permissions</text><line style="stroke:#181818;stroke-width:0.5;" x1="8" x2="113" y1="707.1094" y2="707.1094"/><text fill="#000000" font-family="sans-serif" font-size="14" lengthAdjust="spacing" textLength="11" x="13" y="725.6426">id</text><text fill="#000000" font-family="sans-serif" font-size="14" lengthAdjust="spacing" textLength="35" x="13" y="743.252">name</text><text fill="#000000" font-family="sans-serif" font-size="14" lengthAdjust="spacing" textLength="26" x="13" y="760.8613">slug</text><text fill="#000000" font-family="sans-serif" font-size="14" lengthAdjust="spacing" textLength="56" x="13" y="778.4707">resource</text><text fill="#000000" font-family="sans-serif" font-size="14" lengthAdjust="spacing" textLength="38" x="13" y="796.0801">action</text><text fill="#000000" font-family="sans-serif" font-size="14" lengthAdjust="spacing" textLength="68" x="13" y="813.6895">created_at</text><text fill="#000000" font-family="sans-serif" font-size="14" lengthAdjust="spacing" textLength="72" x="13" y="831.2988">updated_at</text><line style="stroke:#181818;stroke-width:0.5;" x1="8" x2="113" y1="838.375" y2="838.375"/></g><g id="elem_GMN22"><path d="M245,171.1094 L245,180.1094 L209.64,184.1094 L245,188.1094 L245,197.4609 A0,0 0 0 0 245,197.4609 L462,197.4609 A0,0 0 0 0 462,197.4609 L462,181.1094 L452,171.1094 L245,171.1094 A0,0 0 0 0 245,171.1094 " fill="#FEFFDD" style="stroke:#181818;stroke-width:0.5;"/><path d="M452,171.1094 L452,181.1094 L462,181.1094 L452,171.1094 " fill="#FEFFDD" style="stroke:#181818;stroke-width:0.5;"/><text fill="#000000" font-family="sans-serif" font-size="13" lengthAdjust="spacing" textLength="196" x="251" y="189.6045">User roles: admin, staff, customer</text></g><g id="elem_GMN25"><path d="M973,747.6094 L973,773.9609 L1330,773.9609 L1330,757.6094 L1320,747.6094 L973,747.6094 " fill="#FEFFDD" style="stroke:#181818;stroke-width:0.5;"/><path d="M1320,747.6094 L1320,757.6094 L1330,757.6094 L1320,747.6094 " fill="#FEFFDD" style="stroke:#181818;stroke-width:1.0;"/><text fill="#000000" font-family="sans-serif" font-size="13" lengthAdjust="spacing" textLength="336" x="979" y="766.1045">Status: pending, processing, shipped, delivered, cancelled</text></g><g id="elem_GMN28"><path d="M695.5,747.6094 L695.5,773.9609 L937.5,773.9609 L937.5,757.6094 L927.5,747.6094 L695.5,747.6094 " fill="#FEFFDD" style="stroke:#181818;stroke-width:0.5;"/><path d="M927.5,747.6094 L927.5,757.6094 L937.5,757.6094 L927.5,747.6094 " fill="#FEFFDD" style="stroke:#181818;stroke-width:1.0;"/><text fill="#000000" font-family="sans-serif" font-size="13" lengthAdjust="spacing" textLength="221" x="701.5" y="766.1045">Template-based products with variants</text></g><!--link users to saved_designs--><g id="link_users_saved_designs"><path codeLine="121" d="M170.37,331.0094 C174.24,470.4394 183.17,686.3594 203.5,872.6094 C205.64,892.2494 208.61,913.1294 211.79,933.1394 " fill="none" id="users-saved_designs" style="stroke:#181818;stroke-width:1.0;"/><line style="stroke:#181818;stroke-width:1.0;" x1="166.2485" x2="174.2457" y1="326.865" y2="326.6508"/><line style="stroke:#181818;stroke-width:1.0;" x1="166.3289" x2="174.326" y1="329.864" y2="329.6498"/><line style="stroke:#181818;stroke-width:1.0;" x1="170.3542" x2="170.14" y1="330.7565" y2="322.7594"/><line style="stroke:#181818;stroke-width:1.0;" x1="211.7888" x2="218.9838" y1="933.161" y2="940.106"/><line style="stroke:#181818;stroke-width:1.0;" x1="211.7888" x2="207.1362" y1="933.161" y2="942.0127"/><line style="stroke:#181818;stroke-width:1.0;" x1="211.7888" x2="213.06" y1="933.161" y2="941.0594"/><ellipse cx="210.8355" cy="927.2372" fill="none" rx="4" ry="4" style="stroke:#181818;stroke-width:1.0;"/></g><!--link users to customers--><g id="link_users_customers"><path codeLine="122" d="M214.47,308.7194 C218.48,313.6994 222.82,318.3694 227.5,322.6094 C291.9,380.8994 335.52,344.3494 413.5,382.6094 C446.19,398.6494 479.89,421.1294 506.95,440.9094 " fill="none" id="users-customers" style="stroke:#181818;stroke-width:1.0;"/><line style="stroke:#181818;stroke-width:1.0;" x1="208.788" x2="215.1639" y1="307.8533" y2="303.0213"/><line style="stroke:#181818;stroke-width:1.0;" x1="210.6" x2="216.9759" y1="310.2443" y2="305.4123"/><line style="stroke:#181818;stroke-width:1.0;" x1="214.392" x2="209.56" y1="308.6253" y2="302.2494"/><line style="stroke:#181818;stroke-width:1.0;" x1="507.2474" x2="517.247" y1="441.1367" y2="441.0474"/><line style="stroke:#181818;stroke-width:1.0;" x1="507.2474" x2="510.133" y1="441.1367" y2="450.7113"/><line style="stroke:#181818;stroke-width:1.0;" x1="507.2474" x2="513.69" y1="441.1367" y2="445.8794"/><ellipse cx="502.4154" cy="437.5797" fill="none" rx="4" ry="4" style="stroke:#181818;stroke-width:1.0;"/></g><!--link customers to orders--><g id="link_customers_orders"><path codeLine="123" d="M579.44,596.7094 C583.03,620.0794 586.79,644.5194 590.28,667.1594 " fill="none" id="customers-orders" style="stroke:#181818;stroke-width:1.0;"/><line style="stroke:#181818;stroke-width:1.0;" x1="574.8622" x2="582.7672" y1="593.2165" y2="591.9872"/><line style="stroke:#181818;stroke-width:1.0;" x1="575.3232" x2="583.2282" y1="596.1809" y2="594.9516"/><line style="stroke:#181818;stroke-width:1.0;" x1="579.4293" x2="578.2" y1="596.5544" y2="588.6494"/><line style="stroke:#181818;stroke-width:1.0;" x1="590.2868" x2="597.4306" y1="667.1719" y2="674.1694"/><line style="stroke:#181818;stroke-width:1.0;" x1="590.2868" x2="585.5694" y1="667.1719" y2="675.9893"/><line style="stroke:#181818;stroke-width:1.0;" x1="590.2868" x2="591.5" y1="667.1719" y2="675.0794"/><ellipse cx="589.3768" cy="661.2413" fill="none" rx="4" ry="4" style="stroke:#181818;stroke-width:1.0;"/></g><!--link orders to order_items--><g id="link_orders_order_items"><path codeLine="124" d="M579.49,853.8594 C573.36,876.5094 566.72,900.9694 560.38,924.3694 " fill="none" id="orders-order_items" style="stroke:#181818;stroke-width:1.0;"/><line style="stroke:#181818;stroke-width:1.0;" x1="576.6846" x2="584.4074" y1="848.9367" y2="851.0247"/><line style="stroke:#181818;stroke-width:1.0;" x1="575.9017" x2="583.6244" y1="851.8328" y2="853.9207"/><line style="stroke:#181818;stroke-width:1.0;" x1="579.502" x2="581.59" y1="853.8421" y2="846.1194"/><line style="stroke:#181818;stroke-width:1.0;" x1="560.3377" x2="564.0301" y1="924.5393" y2="933.8326"/><line style="stroke:#181818;stroke-width:1.0;" x1="560.3377" x2="552.4499" y1="924.5393" y2="930.6861"/><line style="stroke:#181818;stroke-width:1.0;" x1="560.3377" x2="558.24" y1="924.5393" y2="932.2594"/><ellipse cx="561.911" cy="918.7492" fill="none" rx="4" ry="4" style="stroke:#181818;stroke-width:1.0;"/></g><!--link products to order_items--><g id="link_products_order_items"><path codeLine="125" d="M488.74,880.5694 C492.7,895.1594 496.73,910.0294 500.65,924.4794 " fill="none" id="products-order_items" style="stroke:#181818;stroke-width:1.0;"/><line style="stroke:#181818;stroke-width:1.0;" x1="483.7826" x2="491.5054" y1="877.5547" y2="875.4667"/><line style="stroke:#181818;stroke-width:1.0;" x1="484.5656" x2="492.2883" y1="880.4507" y2="878.3628"/><line style="stroke:#181818;stroke-width:1.0;" x1="488.688" x2="486.6" y1="880.3721" y2="872.6494"/><line style="stroke:#181818;stroke-width:1.0;" x1="500.722" x2="508.602" y1="924.7467" y2="930.9034"/><line style="stroke:#181818;stroke-width:1.0;" x1="500.722" x2="497.018" y1="924.7467" y2="934.0354"/><line style="stroke:#181818;stroke-width:1.0;" x1="500.722" x2="502.81" y1="924.7467" y2="932.4694"/><ellipse cx="499.156" cy="918.9546" fill="none" rx="4" ry="4" style="stroke:#181818;stroke-width:1.0;"/></g><!--link product_types to products--><g id="link_product_types_products"><path codeLine="126" d="M375.63,578.6394 C384.58,598.6694 394.17,620.1294 403.5,641.0194 " fill="none" id="product_types-products" style="stroke:#181818;stroke-width:1.0;"/><line style="stroke:#181818;stroke-width:1.0;" x1="370.2517" x2="377.5546" y1="576.4039" y2="573.1376"/><line style="stroke:#181818;stroke-width:1.0;" x1="371.4766" x2="378.7794" y1="579.1425" y2="575.8762"/><line style="stroke:#181818;stroke-width:1.0;" x1="375.5363" x2="372.27" y1="578.4222" y2="571.1194"/><line style="stroke:#181818;stroke-width:1.0;" x1="403.5356" x2="412.2711" y1="641.0712" y2="645.9386"/><line style="stroke:#181818;stroke-width:1.0;" x1="403.5356" x2="401.3089" y1="641.0712" y2="650.8202"/><line style="stroke:#181818;stroke-width:1.0;" x1="403.5356" x2="406.79" y1="641.0712" y2="648.3794"/><ellipse cx="401.0948" cy="635.5901" fill="none" rx="4" ry="4" style="stroke:#181818;stroke-width:1.0;"/></g><!--link product_types to design_templates--><g id="link_product_types_design_templates"><path codeLine="127" d="M320.24,579.3094 C316.34,604.6494 312.1,632.2394 308.13,658.0494 " fill="none" id="product_types-design_templates" style="stroke:#181818;stroke-width:1.0;"/><line style="stroke:#181818;stroke-width:1.0;" x1="316.9396" x2="324.8471" y1="574.4665" y2="575.6797"/><line style="stroke:#181818;stroke-width:1.0;" x1="316.4847" x2="324.3921" y1="577.4318" y2="578.645"/><line style="stroke:#181818;stroke-width:1.0;" x1="320.2868" x2="321.5" y1="579.0268" y2="571.1194"/><line style="stroke:#181818;stroke-width:1.0;" x1="308.1132" x2="312.8306" y1="658.0819" y2="666.8993"/><line style="stroke:#181818;stroke-width:1.0;" x1="308.1132" x2="300.9694" y1="658.0819" y2="665.0794"/><line style="stroke:#181818;stroke-width:1.0;" x1="308.1132" x2="306.9" y1="658.0819" y2="665.9894"/><ellipse cx="309.0232" cy="652.1513" fill="none" rx="4" ry="4" style="stroke:#181818;stroke-width:1.0;"/></g><!--link design_templates to saved_designs--><g id="link_design_templates_saved_designs"><path codeLine="128" d="M269.47,863.0094 C264.3,885.7694 258.82,909.9294 253.64,932.6994 " fill="none" id="design_templates-saved_designs" style="stroke:#181818;stroke-width:1.0;"/><line style="stroke:#181818;stroke-width:1.0;" x1="266.4635" x2="274.2648" y1="858.1942" y2="859.9659"/><line style="stroke:#181818;stroke-width:1.0;" x1="265.7991" x2="273.6004" y1="861.1197" y2="862.8914"/><line style="stroke:#181818;stroke-width:1.0;" x1="269.4783" x2="271.25" y1="862.9807" y2="855.1794"/><line style="stroke:#181818;stroke-width:1.0;" x1="253.6017" x2="257.681" y1="932.898" y2="942.0282"/><line style="stroke:#181818;stroke-width:1.0;" x1="253.6017" x2="245.979" y1="932.898" y2="939.3706"/><line style="stroke:#181818;stroke-width:1.0;" x1="253.6017" x2="251.83" y1="932.898" y2="940.6994"/><ellipse cx="254.9305" cy="927.047" fill="none" rx="4" ry="4" style="stroke:#181818;stroke-width:1.0;"/></g><!--link users to roles--><g id="link_users_roles"><path codeLine="129" d="M122.75,317.8094 C113.28,345.8894 103.54,374.7794 94.88,400.4594 " fill="none" id="users-roles" style="stroke:#181818;stroke-width:1.0;"/><line style="stroke:#181818;stroke-width:1.0;" x1="122.8445" x2="119.7144" y1="317.5402" y2="308.0427"/><line style="stroke:#181818;stroke-width:1.0;" x1="122.8445" x2="131.0856" y1="317.5402" y2="311.876"/><line style="stroke:#181818;stroke-width:1.0;" x1="122.8445" x2="125.4" y1="317.5402" y2="309.9594"/><ellipse cx="120.9279" cy="323.2259" fill="none" rx="4" ry="4" style="stroke:#181818;stroke-width:1.0;"/><line style="stroke:#181818;stroke-width:1.0;" x1="94.7855" x2="97.9156" y1="400.7385" y2="410.236"/><line style="stroke:#181818;stroke-width:1.0;" x1="94.7855" x2="86.5444" y1="400.7385" y2="406.4027"/><line style="stroke:#181818;stroke-width:1.0;" x1="94.7855" x2="92.23" y1="400.7385" y2="408.3194"/><ellipse cx="96.7021" cy="395.0529" fill="none" rx="4" ry="4" style="stroke:#181818;stroke-width:1.0;"/></g><!--link roles to permissions--><g id="link_roles_permissions"><path codeLine="130" d="M64.65,570.9394 C63.98,601.2594 63.23,635.6094 62.54,666.6294 " fill="none" id="roles-permissions" style="stroke:#181818;stroke-width:1.0;"/><line style="stroke:#181818;stroke-width:1.0;" x1="64.6443" x2="58.8316" y1="570.6572" y2="562.5201"/><line style="stroke:#181818;stroke-width:1.0;" x1="64.6443" x2="70.8284" y1="570.6572" y2="562.7986"/><line style="stroke:#181818;stroke-width:1.0;" x1="64.6443" x2="64.83" y1="570.6572" y2="562.6594"/><ellipse cx="64.5051" cy="576.6556" fill="none" rx="4" ry="4" style="stroke:#181818;stroke-width:1.0;"/><line style="stroke:#181818;stroke-width:1.0;" x1="62.5457" x2="68.3584" y1="666.8515" y2="674.9886"/><line style="stroke:#181818;stroke-width:1.0;" x1="62.5457" x2="56.3616" y1="666.8515" y2="674.7101"/><line style="stroke:#181818;stroke-width:1.0;" x1="62.5457" x2="62.36" y1="666.8515" y2="674.8494"/><ellipse cx="62.6849" cy="660.8531" fill="none" rx="4" ry="4" style="stroke:#181818;stroke-width:1.0;"/></g><!--link orders to GMN25--><g id="link_orders_GMN25"><path d="M640.79,674.8594 C654.64,652.5494 672.83,631.2494 696,618.6094 C743.22,592.8694 886.52,603.0494 938,618.6094 C1023.65,644.4894 1106.42,717.2694 1138.03,747.3494 " fill="none" id="orders-GMN25" style="stroke:#181818;stroke-width:1.0;stroke-dasharray:7.0,7.0;"/></g><!--link products to GMN28--><g id="link_products_GMN28"><path d="M512.89,648.3694 C523.29,636.4794 535.29,626.0394 549,618.6094 C592.76,594.8894 614.59,600.6094 661,618.6094 C729.51,645.1794 786.3,717.5694 807.54,747.4394 " fill="none" id="products-GMN28" style="stroke:#181818;stroke-width:1.0;stroke-dasharray:7.0,7.0;"/></g><!--SRC=[dLLBSjim3Dtp5DnbOryWsxeNgDkrXY5X2pFybHzdt2HtBoXIigpOjL9l110atYC0FZ_nFHglyO2W-7URC9tv3z0YeREnHyztA8v167vmWU-s-nv3YepHFWsJptSYYHSHWUzb3qOmziI_kG0r8K9aK3Fd227oDyRfXshuM65WCEWSwi7o8iPN5seyE5tZldUsMaAf034EjgIqrN3Pfb3jF-WxwLJTZR4JCk6fUZA0IA0waGOtUpMw7snaANDCpgnYEd6Qmy_v4PM9oHfiklOdu95Fr_oOHCerVN99w4wOWjvgTpQKgfljMGtROGApm6w1wlZWL9PfuY5Eb4T1nACTrtvdCMIiK1PJvmDAc96z-6k8DSW5gv58Edlebks9EX_RhX4f2WqpOBGdIk_2kPDJuRu-9dCIzqPbub9Unvp1bz7cnLwWbLVLhQbCQnLb5oCBdryqojKiMWQQ4qyQSVVQjrZS0WzWC9j5izRmAAhmiER_qL881cCislSeERrmbqEZN62SVGppTAMjaLKzV7_VRjtRTOUlGvCYiOisjL0L3DPqOxvOdpERNj3zM1lXjc4yS3kwd03sQIJ-SPqFDuI6xh7QmxOqgpnZrYNW0OzzukvG_pIecB_eMuy-ayGQj9kYX8V3PYeFjL7nSdYPeXM9y_qWYyy4PnNQuwPSLf9M3tRfYGUreJjgcffGJ2ci1Ar1tSqzbOlpdwq6s_BQrKMxNZ7r_2G2aZR6IwA_]--></g></svg>